<?xml version="1.0" encoding="utf-8"?>
<!-- Generator: Adobe Illustrator 27.2.0, SVG Export Plug-In . SVG Version: 6.00 Build 0)  -->
<svg version="1.1" id="katman_1" xmlns="http://www.w3.org/2000/svg" xmlns:xlink="http://www.w3.org/1999/xlink" x="0px" y="0px"
	 viewBox="0 0 681.03 926.22" style="enable-background:new 0 0 681.03 926.22;" xml:space="preserve">
<style type="text/css">
	.st0{fill:#FF0036;}
	.st1{fill:#F20034;}
	.st2{fill:#FFFFFF;}
	.st3{fill:#FF5375;}
	.st4{fill:#FF5277;}
	.st5{fill:url(#SVGID_1_);}
	.st6{fill:url(#SVGID_00000107590890003857380750000017048034314516118153_);}
</style>
<path class="st0" d="M547,431.93c0-73.79-59.82-133.61-133.61-133.61c-0.01,0-0.01,0-0.02,0H413l-138.57,0.46l-2.34,0.22V0H134.47
	v1.58h0.12V606h137.47V435.06l0.13,0.06v-0.27h88.91c14.57,0.01,28.28,6.89,37,18.56c0.24,0.26,0.44,0.55,0.6,0.86
	c5.59,7.8,8.6,17.14,8.62,26.73l-0.12,259.53h139.92L547,431.93z"/>
<polyline class="st1" points="680.89,926.22 0,926.22 0,764.61 680.89,764.61 680.89,926.22 "/>
<path class="st2" d="M138.32,781.77h25.42v45.15c1.47-1.9,3.06-3.71,4.76-5.4c1.75-1.73,3.69-3.26,5.77-4.56
	c2.18-1.36,4.54-2.42,7-3.15c2.82-0.82,5.75-1.21,8.69-1.17c9.7,0,17.2,2.96,22.49,8.87s7.94,14.05,7.94,24.41v58H195v-50.1
	c0-6-1.33-10.55-4-13.66s-6.46-4.64-11.37-4.61c-4.9,0-8.77,1.54-11.62,4.61c-2.85,3.07-4.27,7.63-4.26,13.66v50.12h-25.43V781.77"
	/>
<path class="st2" d="M288,903.94c-4.07,0.03-8.11-0.56-12-1.76c-3.58-1.08-6.91-2.87-9.79-5.26c-2.8-2.36-5.06-5.3-6.6-8.62
	c-1.69-3.69-2.52-7.72-2.43-11.78v-0.34c-0.11-4.39,0.8-8.74,2.68-12.71c1.73-3.51,4.29-6.55,7.44-8.86
	c3.42-2.45,7.28-4.24,11.37-5.26c4.78-1.22,9.7-1.81,14.63-1.76c4.02-0.05,8.04,0.28,12,1c3.37,0.67,6.69,1.56,9.94,2.68v-1.51
	c0-5.33-1.61-9.4-4.84-12.2c-3.23-2.8-8.03-4.19-14.4-4.18c-4.37-0.06-8.72,0.36-13,1.25c-4.01,0.92-7.95,2.12-11.79,3.6l-6.35-19.4
	c4.98-2.15,10.12-3.88,15.38-5.18c6.36-1.45,12.87-2.12,19.39-2c6.1-0.14,12.18,0.74,18,2.59c4.61,1.52,8.81,4.06,12.29,7.44
	c3.41,3.46,5.94,7.68,7.38,12.32c1.62,5.28,2.41,10.79,2.34,16.31v52h-24.58v-9.7c-3.15,3.47-6.96,6.29-11.21,8.28
	c-4.34,2.06-9.63,3.09-15.88,3.09 M295.66,886.42c6,0,10.82-1.45,14.46-4.35c3.53-2.69,5.56-6.92,5.44-11.36v-4.52
	c-2.39-1.05-4.88-1.87-7.44-2.42c-2.88-0.63-5.83-0.94-8.78-0.92c-5.46,0-9.75,1.06-12.88,3.17c-3.07,2.03-4.85,5.52-4.68,9.2v0.33
	c-0.14,3.14,1.31,6.15,3.85,8c2.56,1.9,5.89,2.85,10,2.84"/>
<polyline class="st2" points="452.16,781.88 477.58,781.88 477.58,846.92 507.34,814.32 537.77,814.32 503.66,849.6 538.94,903.94 
	509.85,903.94 486.44,867.32 477.58,876.68 477.58,903.94 452.16,903.94 452.16,781.88 "/>
<path class="st2" d="M374.87,783.61h25.44v89.56c0,5.82,3.16,8.73,9.48,8.73h8.73v23.94h-11.23c-10,0-17.73-2.25-23.19-6.74
	c-6.15-5.15-9.23-13.13-9.23-23.94V783.61"/>
<path class="st3" d="M680.89,764.61H0c0,0,59.9,9.8,138.32,22.9v-5.74h25.42v10c39.1,6.56,81.42,13.71,122.48,20.74
	c4.46-0.6,8.95-0.89,13.45-0.86c6.1-0.14,12.18,0.74,18,2.59c3.62,1.22,7,3.05,10,5.41c16.32,2.83,32.15,5.6,47.2,8.26v-44.3h25.44
	v48.81c19.43,3.48,37,6.7,51.85,9.52v-60.06h25.42v65l0,0l29.76-32.6h30.43l-34.11,35.32l2.64,4
	c95.83,25.21,174.59,72.57,174.59,72.57V764.61"/>
<path class="st2" d="M163.74,781.77h-25.42v5.74l25.42,4.25v-10"/>
<path class="st2" d="M299.67,811.64c-4.5-0.03-8.99,0.26-13.45,0.86c14,2.4,27.9,4.79,41.45,7.14c-3-2.36-6.38-4.19-10-5.41
	C311.85,812.38,305.77,811.5,299.67,811.64"/>
<path class="st2" d="M537.77,814.32h-30.43l-29.76,32.6c9.7,2,19.27,4.24,28.72,6.73l-2.64-4l34.11-35.28 M477.58,781.93h-25.42
	v60.06c9.7,1.84,18.26,3.52,25.42,5v-65"/>
<path class="st2" d="M400.31,783.61h-25.44v44.29l25.44,4.52V783.61"/>
<path class="st4" d="M527.65,488.51c18.77,48.52,19.44,72.24,19.44,72.24S566,404,547.12,373.31
	C534.76,353.22,514,344,496.77,327.48c-29.45-28.28-79.18-35.72-122.32-41.21s-102.39-7.07-102.39-7.07V0H134.47
	c0,0-1.45,151,0.12,167.44s0.42,29.41,2.41,61.83c1.15,18.82,3.94,40.78,35.83,56.2c13.56,6.56,46.39,25.14,134.11,58.82
	c33.67,12.93,94.86,34.74,141.52,57.73C484.76,419.91,513.05,450.76,527.65,488.51z"/>
<linearGradient id="SVGID_1_" gradientUnits="userSpaceOnUse" x1="-2035.4219" y1="1771.3862" x2="-2034.4219" y2="1771.3862" gradientTransform="matrix(0 737.39 -737.39 0 1306407 1500898.5)">
	<stop  offset="0" style="stop-color:#FFFFFF"/>
	<stop  offset="0.2" style="stop-color:#FFFFFF"/>
	<stop  offset="0.51" style="stop-color:#CCCCCC"/>
	<stop  offset="0.78" style="stop-color:#FFFFFF"/>
	<stop  offset="1" style="stop-color:#AEADAD"/>
</linearGradient>
<path class="st5" d="M407.3,481v258H1.56V1.58h133V606h137.6V434.85h88.92c14.57,0.01,28.28,6.89,37,18.55
	c0.24,0.26,0.44,0.55,0.6,0.87C404.26,462.07,407.28,471.41,407.3,481z"/>
<path class="st2" d="M407.3,481h-1v257H2.56V2.58h131V607h139.6V435.85h87.92c14.27,0,27.7,6.73,36.24,18.15
	c0.18,0.2,0.34,0.41,0.47,0.64v0.11l0.07,0.1c5.47,7.62,8.42,16.77,8.44,26.15h2c-0.01-9.79-3.08-19.34-8.77-27.31l-0.81,0.58
	l0.93-0.37c-0.19-0.4-0.43-0.77-0.73-1.1c-8.92-11.93-22.94-18.95-37.84-18.95h-89.92V605H135.57V0.58H0.56V740H408.3V481H407.3z"/>
<linearGradient id="SVGID_00000057123927455232572160000001850945903748281501_" gradientUnits="userSpaceOnUse" x1="-2035.4652" y1="1771.2499" x2="-2034.4652" y2="1771.2499" gradientTransform="matrix(0 573.66 -573.66 0 1016572.25 1167832.75)">
	<stop  offset="0" style="stop-color:#FFFFFF"/>
	<stop  offset="0.2" style="stop-color:#FFFFFF"/>
	<stop  offset="0.51" style="stop-color:#CCCCCC"/>
	<stop  offset="0.78" style="stop-color:#FFFFFF"/>
	<stop  offset="1" style="stop-color:#AEADAD"/>
</linearGradient>
<path style="fill:url(#SVGID_00000057123927455232572160000001850945903748281501_);" d="M681,431.92V739H548V432
	c-0.01-73.79-59.83-133.61-133.62-133.6c-0.02,0-0.03,0-0.05,0H414l-140.79,0.46V165.71l140.32-0.4
	C560.82,164.88,680.57,283.93,681,431.22C681,431.45,681,431.69,681,431.92z"/>
<path class="st2" d="M680,431.92h-1V738H548V432c-0.01-74.35-60.29-134.61-134.64-134.6c-0.01,0-0.02,0-0.03,0H413l-139.79,0.46
	V165.71h-1v1l140.33-0.4H414c146.43,0.39,264.95,119.18,265,265.61h2c-0.04-147.54-119.46-267.24-267-267.62h-1.51l-140.32,0.4
	v135.08L413,299.32h0.4c73.23,0.01,132.59,59.37,132.6,132.6V740h135V432L680,431.92z"/>
</svg>
